<svg xmlns="http://www.w3.org/2000/svg" viewBox="0 0 1129 732"><defs><style>.cls-1{fill:#f2f4f8;}.cls-2{fill:#f0f0f0;}.cls-3{fill:#e6e6e6;}.cls-4{fill:#e4e4e4;}.cls-5{fill:#9e616a;}.cls-6{fill:#2f2e41;}.cls-7{fill:#3f3d56;}.cls-8{fill:#ffb6b6;}</style></defs><title>undraw_product_tour_re_rethjrtjr8bai</title><g id="Ebene_2" data-name="Ebene 2"><path class="cls-1" d="M766.09-56.51c92.67,32.39,166.15,89.6,215.8,154.81,49,64.79,74.8,138.41,37.07,195.62S880.61,392.79,805.81,450,682.68,580.42,597.29,614.91c-85.39,34.92-207.19,31.14-307.81,2.53-100-29-178.07-82.88-238.3-139.67S-51.43,361.24-74.6,296C-97.76,231.24-101.74,161-62,102.93-21.64,45.29,62.43-.56,155.1-32.95c92-32.4,192.63-51.33,299.21-57.22S672.75-88.49,766.09-56.51Z" transform="translate(92 92)"/></g><g id="Ebene_1" data-name="Ebene 1"><ellipse class="cls-2" cx="656.25" cy="396.6" rx="135" ry="7"/><ellipse class="cls-2" cx="239.25" cy="541.6" rx="45" ry="7"/><rect class="cls-3" x="631.08" y="-31.84" width="5.13" height="99" transform="translate(643.87 738.26) rotate(-84.18)"/><circle class="cls-3" cx="649.45" cy="101.53" r="9.53"/><rect class="cls-4" x="631.08" y="-3.84" width="5.13" height="99" transform="translate(616.02 763.42) rotate(-84.18)"/><circle class="cls-4" cx="649.45" cy="129.53" r="9.53"/><rect x="631.08" y="24.16" width="5.13" height="99" transform="translate(588.16 788.59) rotate(-84.18)"/><circle cx="649.45" cy="157.53" r="9.53"/><polygon class="cls-4" points="111.92 258.83 166.25 217.6 165.81 297.87 114.59 340.13 111.92 258.83"/><polygon points="348.92 108.75 454.66 93.81 456.25 185.91 349.85 203.52 348.92 108.75"/><polygon points="962.25 265.49 962.25 346.89 1014.82 397.42 1017.28 314.9 962.25 265.49"/><g id="f1012d9b-0a3f-4e62-89ec-f75ec41b1f18"><path d="M870.56,100.38v12l36.63,29.76,1.72-10.3Z" transform="translate(92 92)"/></g><path id="a03c9d69-04e1-44a9-b627-9efaf6e70c5d-322" class="cls-3" d="M871.14,121l-.58,12,69.25,65.23-1.14-13.73Z" transform="translate(92 92)"/><path id="f49e7db1-285b-4bca-9b97-2387afac8e22-323" class="cls-3" d="M870.56,143.3v11.44l69.25,66.39V206.25Z" transform="translate(92 92)"/><polygon class="cls-5" points="241.85 533.23 236.36 533.23 233.75 512.06 241.85 512.06 241.85 533.23"/><path class="cls-6" d="M151.25,446.55h-17.7v-.23a6.89,6.89,0,0,1,6.89-6.88h10.81Z" transform="translate(92 92)"/><polygon class="cls-5" points="261.31 527.79 256.24 529.88 245.75 511.31 253.23 508.22 261.31 527.79"/><path class="cls-6" d="M172.63,440.17l-16.35,6.75-.09-.2a6.89,6.89,0,0,1,3.74-9h0l10-4.12Z" transform="translate(92 92)"/><path class="cls-6" d="M153.46,282.05s20.37,9.65,6.84,53.85l-1,35-6.75,64.29-11-.7-4.86-61.89L120.5,321.45l3.21-24.69Z" transform="translate(92 92)"/><path d="M122.39,303.29l1.65-32.1c-11.26-18.91.28-29.71,1.22-30.54l10.32-15.07,9-2.47a11.89,11.89,0,0,1,14.62,8.32,11.76,11.76,0,0,1,.42,3.24l-.4,52.59Z" transform="translate(92 92)"/><polygon class="cls-6" points="234.98 473.92 246.33 520.98 259.33 515.69 241.71 473.1 234.98 473.92"/><path class="cls-5" d="M125.68,319.93a5.7,5.7,0,0,0,3-7.48,5.81,5.81,0,0,0-.47-.89l11.51-16.29-9.59-.55L120,310.07a5.74,5.74,0,0,0,5.72,9.86Z" transform="translate(92 92)"/><polygon points="221.68 333.32 226.71 368.81 212.5 395.57 224.39 403.01 244.87 372.73 236.29 329.82 221.68 333.32"/><circle id="aaba450f-0f04-490f-b553-501192395cc8" class="cls-5" cx="140.11" cy="202.03" r="15.18" transform="translate(20.65 419.47) rotate(-85.93)"/><path class="cls-6" d="M163,258.64c.56-8.49,4.12-16.45,7-24.46s5.1-16.74,2.93-25a38.53,38.53,0,0,0-5.89-11.8c-4.74-6.87-10.78-13.27-18.62-16.17s-17.7-1.45-22.86,5.12a12.72,12.72,0,0,0-2.87,8.21,9.15,9.15,0,0,0,4.14,7.44c1.43.87,3.13,1.27,4.44,2.32s2,3.18.83,4.37l.47.23c4.25.91,6.62,5.73,6.58,10.07s-1.8,8.45-2.9,12.66-1.41,9,1.12,12.55,7.36,5.06,9.19,9c2.5,5.34-2,11.45-1.49,17.31.52,5.64,5.8,9.89,11.33,11.1s11.26.07,16.8-1.08C165.64,276.56,162.43,267.13,163,258.64Z" transform="translate(92 92)"/><path class="cls-5" d="M514.59,180.73l.74-24.66L512,133.13l-4.92.34L503,157.6l4.63,25.88a7,7,0,1,0,7-2.75Z" transform="translate(92 92)"/><polygon class="cls-5" points="605.97 330.6 592.16 389.06 602.57 389.8 622.51 333.22 605.97 330.6"/><polygon class="cls-5" points="630.58 326.76 649.64 383.72 658.87 378.87 644.25 321.6 630.58 326.76"/><path class="cls-4" d="M513.25,185.7s-6.61,7.31,4.8,21.36l-14.8,77.54,11,4,20-52,18,45,14-6-19.13-68.54,2.13-17.46L544,184.71Z" transform="translate(92 92)"/><path class="cls-7" d="M527,106.76s-20,7.84-18,19.84L513.9,174l-5.07,16.45s33.78,5.42,40-.73L550,137.6,552.18,117l-10.7-4.33-2.67-4Z" transform="translate(92 92)"/><polygon class="cls-7" points="604.04 212.65 596.74 229.09 607.6 233.3 604.04 212.65"/><path class="cls-5" d="M566.78,187.56l-8.81-47-14-1.17L547.91,163l9.54,26.7a7,7,0,1,0,9.72-1.87l-.39-.25Z" transform="translate(92 92)"/><path class="cls-7" d="M536.25,122.73l8.08,22.94L560,143.6s3.43-21.23-7.79-26.61Z" transform="translate(92 92)"/><path id="aadf75e6-ac14-4c0d-b07b-d38ba10ebdab-324" class="cls-5" d="M547.22,89.26c-.4,19.64-30.65,16.28-26.64-3C523.67,70.9,547.64,73.63,547.22,89.26Z" transform="translate(92 92)"/><path id="e2c3cfee-80d7-4301-b109-7608295bf7e0-325" class="cls-7" d="M539.85,71.2C530.37,72.82,515.69,69,516,83.86c-1,1.45-2,3-1.35,4.87,3.35,4.08,5.1,10.4,9.46,13.26,3.89,0,9,.52,11.58-2.88,1.11-2.78-.85-6.18.82-8.79,2.2-.7,4.34,2.11,5.19-1.89a5.45,5.45,0,0,1,2.23-5.09C547.34,79.41,545,72.16,539.85,71.2Z" transform="translate(92 92)"/><path class="cls-6" d="M497.47,295.6h16.35A10.43,10.43,0,0,1,524.24,306v.34H497.47Z" transform="translate(92 92)"/><path class="cls-6" d="M553.63,288.54l16-3.44h0a10.41,10.41,0,0,1,12.38,8l.07.33-26.17,5.64Z" transform="translate(92 92)"/><polygon class="cls-8" points="713.56 391.66 718.85 391.66 721.36 371.28 713.56 371.28 713.56 391.66"/><path class="cls-6" d="M620.22,297.93h10.4a6.63,6.63,0,0,1,6.63,6.63v.22h-17Z" transform="translate(92 92)"/><polygon class="cls-8" points="686.56 391.66 691.85 391.66 694.36 371.28 686.56 371.28 686.56 391.66"/><path class="cls-6" d="M593.22,297.93h10.4a6.63,6.63,0,0,1,6.63,6.63v.22h-17Z" transform="translate(92 92)"/><path class="cls-8" d="M656.25,72.6a6,6,0,1,0-11.55,2.28L632.56,94.09,625,109.32l6.24,5.53,4.8-5,15.69-31.39A6,6,0,0,0,656.25,72.6Z" transform="translate(92 92)"/><path class="cls-8" d="M593.25,135.6l-11.9-1.84-2.83,21.52-15.45,33.24a6,6,0,1,0,8.27,1.92l16.15-29.16Z" transform="translate(92 92)"/><path class="cls-6" d="M599.84,171.46s-10.46,9.68-9.13,34l2.93,37.59-.74,52.39,10.75-.84L613,206.8l9,36-3.23,48,10.35.24L640,236.8l-2.58-40.17-4.33-25.17Z" transform="translate(92 92)"/><path class="cls-4" d="M611,114.8l-25,7,12.71,38.09-1.9,14.57,38.55.25-8.93-28.17s5-10.3-.71-17.52Z" transform="translate(92 92)"/><path class="cls-4" d="M608,120.8l3-6s-.1-1.51,7-2.25l8.27-8.22,7.57,7.54L621,130.8Z" transform="translate(92 92)"/><path class="cls-4" d="M596,126.8s-9-10-14-5-2.44,20.9-2.44,20.9l15.58,2.42Z" transform="translate(92 92)"/><path id="bf97ead5-a8ed-4eb0-acc5-869eed05cf08-326" class="cls-8" d="M600.6,88.36c15.33.07,15.33,23.37,0,23.44S585.28,88.43,600.6,88.36Z" transform="translate(92 92)"/><path class="cls-6" d="M602.31,99.31a17.23,17.23,0,0,0,6.61,2.73c2.39.26,5.1-.75,6.06-3a6.83,6.83,0,0,0,.47-2.4,15.92,15.92,0,0,0-4-11.41,14.41,14.41,0,0,0-11.09-4.69c-4,.17-7.62,2-11.13,3.88-3.24,1.69-6.65,3.54-8.4,6.74-2.61,4.73-.71,10.53-.2,15.91a30,30,0,0,1-7.23,22.29l21.81,2.06a25.6,25.6,0,0,0,8-.08,12.72,12.72,0,0,0,6.05-21.59c-3.09-3-8.07-5.09-8.19-9.38" transform="translate(92 92)"/><polygon points="92 244.07 171.88 185.6 171.25 190.6 92.25 249.6 92 244.07"/><path id="e675ae52-c925-4d34-8b81-f405477c3ca7-327" class="cls-2" d="M417,423.06c22-.09,22,4.77,0,4.68C394.92,427.83,394.92,423,417,423.06Z" transform="translate(92 92)"/><path id="e3c5ec81-3296-48b2-bdc0-fdf32bb949c4-328" class="cls-2" d="M96,421.06c22-.09,22,4.77,0,4.68C73.92,425.83,73.92,421,96,421.06Z" transform="translate(92 92)"/><path id="a417f11e-12d9-4890-9c52-a0b47cfebf3d-329" class="cls-2" d="M712,336.06c22-.09,22,4.77,0,4.68C689.92,340.83,689.92,336,712,336.06Z" transform="translate(92 92)"/><path class="cls-2" d="M710.19,332.51c0-2.14-1.49-4.46-3.62-4.47a3.78,3.78,0,0,0-3.47,3.16,6.18,6.18,0,0,0,1.4,4.76,18.56,18.56,0,0,0,3.8,3.38l.37-1.38a4.27,4.27,0,0,1-.83.41C709,336.57,710.15,334.64,710.19,332.51Z" transform="translate(92 92)"/><path class="cls-2" d="M708.67,338a4.93,4.93,0,0,0,.9-.74l-.74.16Z" transform="translate(92 92)"/><path class="cls-2" d="M724.7,321.25a7.32,7.32,0,0,0-7.07-1.1,8.57,8.57,0,0,0-5,5.27c-.77,2.3-.61,4.79-1,7.19a8.63,8.63,0,0,1-2.09,4.61,48.1,48.1,0,0,0,11.09-3.66c2.56-1.21,5.2-2.87,6.09-5.55A6.42,6.42,0,0,0,724.7,321.25Z" transform="translate(92 92)"/><path class="cls-2" d="M417.19,419.51c.05-2.14-1.49-4.46-3.62-4.47a3.78,3.78,0,0,0-3.47,3.16,6.18,6.18,0,0,0,1.4,4.76,18.56,18.56,0,0,0,3.8,3.38l.37-1.38a4.27,4.27,0,0,1-.83.41C416,423.57,417.15,421.64,417.19,419.51Z" transform="translate(92 92)"/><path class="cls-2" d="M415.67,425a4.93,4.93,0,0,0,.9-.74l-.74.16Z" transform="translate(92 92)"/><path class="cls-2" d="M431.7,408.25a7.32,7.32,0,0,0-7.07-1.1,8.57,8.57,0,0,0-5,5.27c-.77,2.3-.61,4.79-1,7.19a8.63,8.63,0,0,1-2.09,4.61,48.1,48.1,0,0,0,11.09-3.66c2.56-1.21,5.2-2.87,6.09-5.55A6.42,6.42,0,0,0,431.7,408.25Z" transform="translate(92 92)"/><path class="cls-2" d="M96.19,417.51c0-2.14-1.49-4.46-3.62-4.47a3.78,3.78,0,0,0-3.47,3.16A6.18,6.18,0,0,0,90.5,421a18.56,18.56,0,0,0,3.8,3.38l.37-1.38a4.27,4.27,0,0,1-.83.41C95,421.57,96.15,419.64,96.19,417.51Z" transform="translate(92 92)"/><path class="cls-2" d="M94.67,423a4.93,4.93,0,0,0,.9-.74l-.74.16Z" transform="translate(92 92)"/><path class="cls-2" d="M110.7,406.25a7.32,7.32,0,0,0-7.07-1.1,8.57,8.57,0,0,0-5,5.27c-.77,2.3-.61,4.79-1,7.19a8.63,8.63,0,0,1-2.09,4.61,48.1,48.1,0,0,0,11.09-3.66c2.56-1.21,5.2-2.87,6.09-5.55A6.42,6.42,0,0,0,110.7,406.25Z" transform="translate(92 92)"/></g></svg>
